<?xml version="1.0" standalone="no"?>
<!DOCTYPE svg PUBLIC "-//W3C//DTD SVG 20010904//EN"
 "http://www.w3.org/TR/2001/REC-SVG-20010904/DTD/svg10.dtd">
<svg version="1.0" xmlns="http://www.w3.org/2000/svg"
 width="540.000000pt" height="540.000000pt" viewBox="0 0 540.000000 540.000000"
 preserveAspectRatio="xMidYMid meet">
<metadata>
Created by potrace 1.14, written by Peter Selinger 2001-2017
</metadata>
<g transform="translate(0.000000,540.000000) scale(0.100000,-0.100000)"
fill="#000000" stroke="none">
<path d="M0 2700 l0 -2700 2700 0 2700 0 0 2700 0 2700 -2700 0 -2700 0 0
-2700z m1607 2524 c434 -77 816 -414 953 -842 50 -155 63 -254 58 -449 l-5
-173 92 0 92 0 -8 43 c-16 81 -10 310 10 414 73 373 318 696 656 863 188 93
348 131 555 132 603 2 1115 -420 1225 -1011 22 -119 20 -326 -4 -448 -73 -373
-318 -696 -656 -863 -185 -91 -347 -130 -549 -132 l-118 -1 6 -45 c3 -25 6
-64 6 -87 l0 -42 113 -1 c192 -2 363 -44 543 -133 315 -157 551 -447 641 -786
35 -135 43 -368 18 -510 -91 -508 -493 -907 -1005 -999 -109 -20 -321 -20
-430 0 -384 69 -720 318 -892 661 -77 153 -116 296 -126 465 l-7 105 -77 3
-78 3 0 -64 c0 -139 -55 -353 -127 -497 -62 -122 -132 -219 -233 -321 -235
-237 -528 -359 -861 -360 -124 -1 -155 2 -254 22 -491 101 -883 506 -970 1003
-19 114 -19 328 0 442 86 493 460 885 954 1000 78 18 256 32 330 26 61 -5 71
3 71 60 l0 37 -128 0 c-127 -1 -158 2 -257 22 -491 101 -883 506 -970 1003
-19 114 -19 328 0 442 119 678 764 1136 1432 1018z"/>
<path d="M1209 5150 c-471 -80 -852 -453 -949 -930 -19 -90 -21 -128 -17 -270
5 -202 30 -308 110 -474 152 -313 422 -536 764 -627 64 -18 109 -22 252 -23
l174 -1 42 120 c66 194 153 332 300 474 100 97 206 172 320 225 76 37 213 82
274 92 28 4 41 12 46 28 4 11 9 95 12 186 4 142 2 179 -17 270 -96 471 -462
838 -923 925 -84 16 -306 19 -388 5z m431 -910 l0 -50 -95 0 -95 0 0 -260 0
-260 -60 0 -60 0 -2 258 -3 257 -92 3 -93 3 0 49 0 50 250 0 250 0 0 -50z"/>
<path d="M3796 5114 c-438 -87 -783 -408 -903 -840 -26 -92 -28 -113 -28 -284
0 -102 3 -196 7 -210 6 -22 19 -28 123 -53 421 -101 746 -399 872 -799 l27
-88 127 0 c71 0 162 7 206 15 440 84 789 406 910 841 26 92 28 112 28 289 0
177 -2 197 -28 289 -55 199 -157 375 -297 516 -168 169 -389 285 -618 325
-105 19 -332 18 -426 -1z m303 -829 c95 -33 152 -110 171 -230 21 -130 -8
-244 -79 -315 -66 -65 -163 -87 -262 -60 -54 15 -122 80 -149 141 -44 104 -37
263 16 356 58 102 189 149 303 108z"/>
<path d="M3932 4161 c-35 -35 -52 -96 -52 -183 0 -127 41 -196 120 -205 57 -5
99 19 126 73 26 53 26 223 1 271 -27 50 -63 73 -118 73 -39 0 -53 -5 -77 -29z"/>
<path d="M2469 2708 c0 -338 -4 -371 -49 -411 -29 -26 -39 -29 -78 -24 -52 6
-81 31 -91 78 l-7 34 -87 3 -87 3 0 -27 c0 -81 57 -166 138 -206 39 -19 62
-23 142 -23 83 1 101 4 146 27 29 15 66 44 83 65 56 68 61 103 61 450 l0 313
-85 0 -85 0 -1 -282z"/>
<path d="M3030 2774 c-19 -8 -47 -27 -62 -41 l-28 -27 0 32 0 32 -80 0 -80 0
0 -315 0 -315 85 0 85 0 2 217 3 217 34 23 c26 17 48 23 92 23 l59 0 0 79 c0
73 -2 79 -22 85 -34 9 -49 7 -88 -10z"/>
<path d="M1183 2545 c-277 -50 -541 -216 -716 -450 -76 -102 -160 -274 -194
-401 -25 -92 -27 -113 -27 -299 0 -186 2 -207 27 -299 14 -54 51 -149 80 -210
152 -313 419 -533 764 -628 67 -19 105 -22 273 -22 183 -1 201 1 295 27 139
38 319 130 428 218 247 200 407 507 424 815 l6 101 -79 18 c-509 113 -877 522
-935 1042 l-12 103 -131 -1 c-72 0 -163 -7 -203 -14z m336 -864 c46 -24 89
-72 97 -109 3 -15 7 -33 10 -39 2 -10 -14 -13 -59 -13 -60 0 -63 1 -74 30 -22
59 -127 76 -174 29 -43 -43 -13 -92 79 -125 150 -53 205 -96 223 -172 26 -115
-65 -204 -210 -204 -141 -1 -232 59 -256 170 l-7 32 66 0 c60 0 66 -2 66 -21
0 -11 13 -34 29 -50 26 -25 37 -29 87 -29 65 0 104 25 104 67 0 38 -38 66
-139 102 -115 41 -174 92 -186 159 -16 97 42 163 170 196 38 9 135 -4 174 -23z"/>
<path d="M3911 2415 c-44 -315 -211 -596 -470 -790 -142 -107 -332 -190 -501
-219 l-75 -13 1 -109 c2 -251 126 -525 329 -729 163 -163 377 -276 608 -320
103 -20 321 -20 424 0 440 84 789 406 910 841 26 92 28 112 28 289 0 166 -3
201 -23 273 -54 199 -158 378 -302 522 -220 220 -505 340 -810 340 l-107 0
-12 -85z m24 -976 l78 -222 77 219 78 219 86 3 86 3 0 -306 0 -305 -67 0 -66
0 6 223 7 222 -81 -223 -82 -223 -45 3 -45 3 -77 212 c-42 117 -78 215 -81
217 -2 2 -1 -57 2 -132 4 -75 7 -174 8 -219 l1 -83 -65 0 -65 0 0 305 0 305
84 0 83 0 78 -221z"/>
<path d="M3156 2289 c-21 -16 -26 -29 -26 -64 0 -56 32 -85 95 -85 53 0 89 34
89 85 0 76 -94 114 -158 64z"/>
</g>
</svg>
